<svg xmlns="http://www.w3.org/2000/svg" viewBox="0 0 64 64" role="img" aria-label="Build">
  <defs>
    <linearGradient id="build-steel" x1="10" y1="6" x2="54" y2="58" gradientUnits="userSpaceOnUse"><stop stop-color="#effaff"/><stop offset=".4" stop-color="#9aaac5"/><stop offset="1" stop-color="#3d4f70"/></linearGradient>
    <linearGradient id="build-gold" x1="8" y1="18" x2="56" y2="60" gradientUnits="userSpaceOnUse"><stop stop-color="#fff3a0"/><stop offset=".3" stop-color="#ffd529"/><stop offset=".72" stop-color="#f08a0c"/><stop offset="1" stop-color="#a94d08"/></linearGradient>
    <linearGradient id="build-blue" x1="8" y1="8" x2="56" y2="56" gradientUnits="userSpaceOnUse"><stop stop-color="#6fd8ff"/><stop offset=".5" stop-color="#2a8de0"/><stop offset="1" stop-color="#123e8a"/></linearGradient>
    <radialGradient id="build-spark"><stop stop-color="#fff"/><stop offset=".28" stop-color="#fffbd5"/><stop offset=".62" stop-color="#ffd529"/><stop offset="1" stop-color="#d7318f"/></radialGradient>
  </defs>
  <!-- A wrench and a sledge crossed, with a spark where they meet: chunky and inked like the rest of the bar. -->
  <g transform="rotate(-45 32 32)">
    <rect x="27" y="24" width="10" height="38" rx="3" fill="url(#build-blue)" stroke="#010718" stroke-width="4" stroke-linejoin="round"/>
    <path d="M18 17a14 14 0 1 1 28 0v3h-8v-9h-12v9h-8z" fill="url(#build-blue)" stroke="#010718" stroke-width="4" stroke-linejoin="round"/>
    <path d="M26 3v9h12V3" fill="none" stroke="#010718" stroke-width="4" stroke-linejoin="round"/>
  </g>
  <g transform="rotate(45 32 32)">
    <rect x="28" y="20" width="8" height="42" rx="3" fill="url(#build-gold)" stroke="#010718" stroke-width="4" stroke-linejoin="round"/>
    <rect x="17" y="4" width="30" height="16" rx="4" fill="url(#build-steel)" stroke="#010718" stroke-width="4" stroke-linejoin="round"/>
    <path d="M21 8h22" stroke="#ffffff" stroke-width="2" stroke-linecap="round" opacity=".8"/>
  </g>
  <path d="M32 21c1.7 6.1 4.3 9.1 10 10.5-5.7 1.4-8.3 4.4-10 10.5-1.7-6.1-4.3-9.1-10-10.5 5.7-1.4 8.3-4.4 10-10.5z" fill="url(#build-spark)" stroke="#d7318f" stroke-width="2.2" stroke-linejoin="round"/>
</svg>
